<svg width="240" height="240" viewBox="0 0 240 240" fill="none" xmlns="http://www.w3.org/2000/svg">
<circle cx="120" cy="120" r="120" fill="white"/>
<path d="M119.543 32.3308C120.357 31.8033 121.402 31.957 122.198 32.4384C123.12 32.9454 123.594 33.9261 124.211 34.7301C126.482 37.9411 128.799 41.1188 131.099 44.3094C132.01 45.4079 131.678 47.0851 130.825 48.1196C128.075 51.6071 125.358 55.1229 122.636 58.6309C121.796 59.6987 119.983 59.924 119.059 58.8511C116.147 55.0281 113.159 51.264 110.235 47.4512C109.413 46.404 109.923 44.9854 110.619 44.0251C113.272 40.3686 115.966 36.7402 118.626 33.0913C118.851 32.7533 119.182 32.5075 119.543 32.3308Z" fill="#6B26FF"/>
<path d="M87.3137 51.7862C88.3277 51.1844 89.7872 51.4175 90.5785 52.3009C92.376 54.0959 94.1198 55.9574 96.1324 57.5194C101.064 61.4269 107.146 63.9133 113.432 64.3947C118.574 64.8479 123.823 63.9875 128.56 61.9365C133.028 60.0314 136.977 57.0354 140.244 53.4608C141.002 52.6133 142.016 51.7734 143.24 51.9629C144.73 52.1933 145.422 53.6862 146.239 54.7693C148.861 58.3439 151.501 61.9262 153.618 65.8312C154.11 66.7479 154.369 68.0077 153.629 68.8681C152.54 70.1714 151.237 71.2802 149.934 72.3607C142.349 78.6291 132.621 82.3523 122.758 82.4009C116.776 82.4214 110.784 81.0976 105.417 78.4448C97.4537 74.5424 90.9754 67.7875 87.2599 59.7497C86.4943 58.0699 85.7543 56.298 85.8285 54.4159C85.8772 53.3815 86.3637 52.2881 87.3137 51.7862Z" fill="#6B26FF"/>
<path d="M71.1594 86.5461C91.9491 86.4974 112.739 86.5179 133.528 86.5153C140.701 86.5563 147.878 86.4462 155.048 86.6408C157.304 86.8021 159.739 86.6946 161.746 87.9186C164.614 89.7161 166.962 92.5174 167.782 95.8462C168.647 99.047 167.836 102.675 165.587 105.131C161.239 110.004 156.748 114.749 152.293 119.524C141.09 131.452 129.918 143.412 118.674 155.306C117.402 156.671 116.014 157.941 114.892 159.439C113.648 160.991 113.515 163.352 114.557 165.037C115.13 165.889 116.196 166.056 117.148 166.022C129.782 166.071 142.419 166.005 155.055 166.02C155.731 166.033 156.415 165.966 157.091 166.076C158.617 165.982 160.169 165.987 161.698 166.076C163.313 166.012 164.942 166.01 166.563 166.074C167.113 166.007 167.687 165.958 168.23 166.135C168.319 173.907 168.296 181.686 168.353 189.46C140.78 189.524 113.202 189.427 85.6371 189.286C83.6245 189.201 81.5914 189.142 79.6248 188.658C76.0425 187.624 72.9877 184.84 71.7381 181.312C70.7062 178.367 70.7216 175.008 72.0044 172.145C73.0722 170.306 74.6316 168.829 76.0758 167.293C89.8391 152.6 103.6 137.907 117.368 123.219C119.524 120.869 121.775 118.608 123.877 116.206C125.083 114.925 125.071 112.926 124.433 111.379C124.098 110.603 123.673 109.727 122.825 109.417C122.088 109.082 121.26 109.074 120.467 109.064C104.066 109.021 87.6626 109.003 71.2618 108.946C71.1364 106.386 71.2004 103.817 71.1722 101.254C71.1466 96.3507 71.0442 91.4471 71.1594 86.5461Z" fill="#6B26FF"/>
</svg>
