<svg width="17" height="17" viewBox="0 0 17 17" fill="none" xmlns="http://www.w3.org/2000/svg">
<path d="M15.9999 8.46692C16.0065 9.95028 15.573 11.4023 14.7543 12.6393C13.9356 13.8763 12.7685 14.8427 11.4006 15.4164C10.0326 15.9901 8.52527 16.1452 7.06914 15.8622C5.61301 15.5792 4.2735 14.8708 3.22 13.8265C2.16651 12.7822 1.44635 11.449 1.15059 9.99536C0.854831 8.54177 0.99676 7.03312 1.55843 5.66019C2.1201 4.28726 3.07628 3.11172 4.30605 2.28222C5.53582 1.45273 6.98396 1.00654 8.46732 1.00007C10.4564 0.991404 12.3674 1.77321 13.78 3.1735C15.1926 4.57379 15.9912 6.47788 15.9999 8.46692Z" stroke="#8B8B90"/>
<path d="M12.0185 6.07533C11.5152 5.92968 10.9935 5.72316 10.4652 5.51446C10.4348 5.38185 10.3174 5.21663 10.0799 5.015C9.73476 4.71555 9.08639 4.72316 8.52606 4.85577C7.90758 4.71011 7.29672 4.65848 6.7103 4.80142C1.91411 6.12261 4.63367 9.34598 2.8728 12.5862C3.12335 13.1177 5.82389 16.2188 9.7315 15.3867C9.7315 15.3867 8.39508 12.1753 11.4108 10.634C13.857 9.37913 15.6244 7.0574 12.0185 6.07533Z" fill="#8B8B90"/>
<path d="M12.6108 8.18464C12.6111 8.24215 12.5944 8.29846 12.5627 8.34645C12.531 8.39444 12.4858 8.43197 12.4328 8.45427C12.3798 8.47657 12.3214 8.48266 12.2649 8.47176C12.2085 8.46085 12.1565 8.43345 12.1156 8.39302C12.0747 8.35258 12.0467 8.30093 12.0352 8.24459C12.0237 8.18825 12.0291 8.12976 12.0508 8.07651C12.0725 8.02326 12.1095 7.97764 12.1572 7.94542C12.2048 7.9132 12.2609 7.89584 12.3184 7.89551C12.3566 7.8953 12.3945 7.90261 12.4298 7.91702C12.4652 7.93143 12.4973 7.95267 12.5245 7.97952C12.5517 8.00637 12.5732 8.0383 12.5881 8.0735C12.6029 8.10869 12.6106 8.14646 12.6108 8.18464V8.18464Z" fill="white"/>
<path d="M8.52612 4.8541C8.87558 4.8791 10.1392 5.28888 10.4653 5.5128C10.1935 4.72475 9.27884 4.61986 8.52612 4.8541Z" fill="#8B8B90"/>
<path d="M8.85863 6.84662C8.85874 7.11194 8.78016 7.37132 8.63284 7.59197C8.48551 7.81263 8.27606 7.98463 8.03096 8.08623C7.78587 8.18783 7.51616 8.21446 7.25593 8.16275C6.9957 8.11104 6.75665 7.98332 6.56902 7.79574C6.38139 7.60816 6.2536 7.36915 6.20182 7.10894C6.15004 6.84873 6.17659 6.579 6.27812 6.33388C6.37965 6.08876 6.55159 5.87926 6.7722 5.73187C6.99281 5.58448 7.25218 5.50583 7.51749 5.50586C7.87311 5.5059 8.21415 5.64716 8.46564 5.89858C8.71713 6.15 8.85849 6.49101 8.85863 6.84662V6.84662Z" fill="white"/>
<path d="M8.46069 6.85852C8.46069 7.04512 8.40535 7.22753 8.30168 7.38269C8.19801 7.53784 8.05066 7.65877 7.87826 7.73018C7.70586 7.80159 7.51616 7.82027 7.33315 7.78387C7.15013 7.74746 6.98202 7.6576 6.85007 7.52566C6.71812 7.39371 6.62826 7.2256 6.59186 7.04258C6.55546 6.85956 6.57414 6.66986 6.64555 6.49746C6.71696 6.32507 6.83789 6.17771 6.99304 6.07404C7.14819 5.97037 7.33061 5.91504 7.51721 5.91504C7.76743 5.91504 8.00741 6.01444 8.18435 6.19138C8.36128 6.36831 8.46069 6.60829 8.46069 6.85852V6.85852Z" fill="#8B8B90"/>
<path d="M13.6973 8.7762C12.6103 9.54196 11.3745 10.1229 9.6212 10.1229C8.80054 10.1229 8.63424 9.25337 8.09185 9.67837C7.81196 9.89902 6.825 10.3925 6.04185 10.355C5.2587 10.3175 3.98913 9.85826 3.63533 8.18652C3.49511 9.85826 3.42337 11.0898 2.79565 12.5012C4.04565 14.5028 7.02609 16.0468 9.73152 15.3816C9.44076 13.3517 11.2147 11.3637 12.2141 10.3463C12.5946 9.96098 13.3174 9.33218 13.6973 8.77511V8.7762Z" fill="#8B8B90"/>
<path d="M13.6548 8.82642C13.3173 9.13403 12.9157 9.36174 12.507 9.56283C12.0933 9.75925 11.6621 9.91628 11.219 10.0319C10.7755 10.1465 10.313 10.2329 9.84452 10.1905C9.37604 10.1482 8.89724 9.98892 8.58691 9.63783L8.60159 9.62098C8.98202 9.86772 9.42115 9.95468 9.85811 9.96718C10.301 9.98065 10.744 9.94419 11.1788 9.85848C11.6179 9.76655 12.0475 9.63372 12.4619 9.46174C12.8766 9.29055 13.2869 9.09218 13.6402 8.80957L13.6548 8.82642Z" fill="white"/>
</svg>
