<svg width="15" height="15" viewBox="0 0 15 15" fill="none" xmlns="http://www.w3.org/2000/svg">
<path d="M13.8571 0.130506C14.7581 0.95643 14.0573 2.83353 14.0573 2.83353C15.0835 4.00985 14.7581 6.03711 14.7581 6.03711L13.5318 2.70839C13.6819 0.906374 13.0062 0.380786 13.0062 0.380786C12.881 0.105478 13.5318 -0.16983 13.8571 0.130506Z" fill="#8B8B90"/>
<path d="M13.6068 0.331055C14.3577 1.00681 13.6569 2.7838 13.6569 2.7838C14.683 3.96011 14.3326 5.03632 14.3577 5.68705L9.37708 2.73374C9.92769 1.28212 13.0061 2.05799 13.0061 2.05799C13.6318 0.981783 13.0061 0.381111 13.0061 0.381111C13.0061 0.381111 13.2064 0.456195 13.6068 0.331055" fill="#8B8B90"/>
<path d="M4.77189 11.5179C7.19961 9.1903 7.47491 7.31319 7.47491 5.21084C7.47491 3.55899 8.47603 2.38268 9.55224 2.18246C10.1029 2.08234 11.8048 2.00726 11.2291 2.50782C10.6785 3.00838 13.2564 2.60793 13.2564 3.68414C13.2564 4.46 13.9071 3.53397 14.683 5.46112C15.4588 7.46336 14.708 8.8399 13.5817 10.0913C11.3793 12.494 6.22351 16.8739 0.89255 14.1208C-1.86053 12.7443 2.41926 13.7704 4.77189 11.5179" fill="#8B8B90"/>
</svg>
