<svg width="14" height="15" viewBox="0 0 14 15" fill="none" xmlns="http://www.w3.org/2000/svg">
<path d="M6.84543 0.0126569C7.66344 0 8.47676 0.0075004 9.28915 0C9.33837 0.95677 9.68245 1.93135 10.3828 2.6078C11.0817 3.30111 12.0704 3.61847 13.0323 3.72582V6.24268C12.1309 6.21314 11.2252 6.02563 10.4072 5.63749C10.0509 5.47623 9.71902 5.26856 9.39416 5.05621C9.38994 6.88255 9.40166 8.70656 9.38244 10.5254C9.33369 11.3992 9.04539 12.2688 8.53724 12.9888C7.71969 14.1875 6.30071 14.9689 4.84329 14.9933C3.94934 15.0444 3.05632 14.8006 2.29456 14.3515C1.03215 13.6071 0.143821 12.2444 0.0144387 10.7818C-0.0018583 10.4721 -0.00436093 10.1618 0.00693832 9.85178C0.119444 8.66249 0.707757 7.52478 1.62093 6.75083C2.65599 5.84937 4.10591 5.41998 5.46348 5.67405C5.47614 6.59988 5.4391 7.52478 5.4391 8.45061C4.81891 8.24997 4.09419 8.30622 3.55228 8.68265C3.15581 8.94383 2.8562 9.32811 2.69958 9.7763C2.5702 10.0932 2.60723 10.4452 2.61473 10.7818C2.76334 11.8075 3.74964 12.6696 4.80251 12.5763C5.50051 12.5688 6.16945 12.1638 6.53322 11.5708C6.65089 11.3631 6.78261 11.1508 6.78964 10.9065C6.85105 9.78849 6.82668 8.67515 6.83418 7.55712C6.83933 5.03746 6.82668 2.52482 6.8459 0.0131257L6.84543 0.0126569Z" fill="#8B8B90"/>
</svg>
