<svg width="234" height="240" viewBox="0 0 234 240" fill="none" xmlns="http://www.w3.org/2000/svg">
<path d="M234 53.1403V186.86C234 216.088 210.686 240 182.188 240H51.8118C23.3144 240 0 216.088 0 186.86V53.1403C0 23.9122 23.3144 0 51.8118 0H182.188C210.682 0 234 23.9122 234 53.1403Z" fill="#6B26FF"/>
<path d="M116.86 32.3518C117.726 31.7908 118.837 31.9542 119.684 32.4662C120.664 33.0054 121.168 34.0484 121.825 34.9034C124.24 38.3183 126.704 41.6978 129.15 45.0908C130.119 46.2591 129.765 48.0428 128.858 49.1429C125.934 52.8519 123.045 56.5908 120.15 60.3216C119.257 61.4572 117.329 61.6968 116.345 60.5558C113.249 56.4901 110.071 52.487 106.961 48.4322C106.087 47.3184 106.629 45.8098 107.37 44.7886C110.191 40.8999 113.056 37.0411 115.885 33.1606C116.125 32.8011 116.476 32.5397 116.86 32.3518Z" fill="white"/>
<path d="M82.5864 53.0425C83.6648 52.4026 85.217 52.6504 86.0585 53.5899C87.9701 55.4988 89.8246 57.4786 91.965 59.1397C97.2099 63.2953 103.677 65.9395 110.363 66.4515C115.831 66.9335 121.413 66.0185 126.451 63.8372C131.203 61.8112 135.402 58.625 138.877 54.8235C139.683 53.9221 140.762 53.0289 142.063 53.2304C143.648 53.4755 144.384 55.0631 145.252 56.215C148.041 60.0166 150.848 63.8263 153.1 67.9792C153.623 68.9541 153.898 70.2939 153.111 71.2089C151.954 72.595 150.568 73.7741 149.182 74.9233C141.116 81.5896 130.77 85.5491 120.281 85.6009C113.919 85.6227 107.547 84.2148 101.839 81.3936C93.3702 77.2434 86.4805 70.0597 82.5292 61.5116C81.715 59.7252 80.928 57.8408 81.0069 55.8392C81.0587 54.7391 81.5761 53.5763 82.5864 53.0425Z" fill="white"/>
<path d="M65.4059 90.0096C87.5154 89.9578 109.625 89.9796 131.734 89.9769C139.362 90.0205 146.995 89.9034 154.62 90.1103C157.019 90.2819 159.609 90.1675 161.744 91.4692C164.794 93.3809 167.291 96.36 168.162 99.9002C169.083 103.304 168.22 107.163 165.829 109.774C161.205 114.957 156.428 120.003 151.69 125.081C139.776 137.766 127.895 150.486 115.937 163.135C114.584 164.587 113.108 165.937 111.915 167.53C110.592 169.181 110.45 171.691 111.558 173.483C112.168 174.39 113.301 174.567 114.314 174.532C127.75 174.583 141.189 174.513 154.628 174.529C155.347 174.543 156.074 174.472 156.793 174.589C158.416 174.488 160.066 174.494 161.692 174.589C163.41 174.521 165.142 174.518 166.866 174.586C167.452 174.515 168.062 174.464 168.639 174.651C168.734 182.916 168.71 191.189 168.77 199.457C139.446 199.525 110.118 199.422 80.8027 199.272C78.6623 199.182 76.5001 199.119 74.4087 198.605C70.599 197.504 67.3502 194.544 66.0213 190.792C64.9239 187.66 64.9402 184.087 66.3045 181.043C67.4401 179.088 69.0985 177.516 70.6344 175.882C85.2715 160.257 99.9058 144.631 114.548 129.011C116.841 126.511 119.235 124.107 121.471 121.552C122.753 120.191 122.74 118.064 122.062 116.419C121.705 115.594 121.253 114.663 120.351 114.333C119.567 113.976 118.688 113.968 117.843 113.957C100.401 113.911 82.9568 113.892 65.5148 113.832C65.3814 111.109 65.4494 108.377 65.4195 105.652C65.3923 100.437 65.2833 95.2217 65.4059 90.0096Z" fill="white"/>
</svg>
